PathFileType	4	(X/Y/Z)	19_1_14_p1_0-250_filt_butterworth.trc
DataRate	CameraRate	NumFrames	NumMarkers	Units	OrigDataRate	OrigDataStartFrame	OrigNumFrames
54.0	54.0	5	27	m	54.0	218	250
Frame#	Time	RHip			RKnee			RAnkle			RBigToe			RSmallToe			RHeel			LHip			LKnee			LAnkle			LBigToe			LSmallToe			LHeel			Neck			Head			Nose			RShoulder			RElbow			RWrist			RThumb			RIndex			RPinky			LShoulder			LElbow			LWrist			LThumb			LIndex			LPinky			
		X1	Y1	Z1	X2	Y2	Z2	X3	Y3	Z3	X4	Y4	Z4	X5	Y5	Z5	X6	Y6	Z6	X7	Y7	Z7	X8	Y8	Z8	X9	Y9	Z9	X10	Y10	Z10	X11	Y11	Z11	X12	Y12	Z12	X13	Y13	Z13	X14	Y14	Z14	X15	Y15	Z15	X16	Y16	Z16	X17	Y17	Z17	X18	Y18	Z18	X19	Y19	Z19	X20	Y20	Z20	X21	Y21	Z21	X22	Y22	Z22	X23	Y23	Z23	X24	Y24	Z24	X25	Y25	Z25	X26	Y26	Z26	X27	Y27	Z27	
218	4.037037037037037	0.27022660041342633	0.5312779491702113	0.9132550054936259	0.2673945775298709	0.5414177135365928	1.3472737588784476	0.25817960727510036	0.506227047948453	1.7286033260277787	0.27076946285982695	0.3686787993892453	1.725975520921129	0.31386186919635933	0.41330525249332034	1.7441139004709094	0.2351875671223796	0.5751093117876407	1.8149396611134243	0.06873140796736706	0.531378153732869	0.9273405812491833	0.0698638864456299	0.5317915167053578	1.3391413363132239	0.0738924129533287	0.5468551235955066	1.7679889828787378	0.10228290371443882	0.35831185426858747	1.7226310822388522	0.044227468747643064	0.40801061348371964	1.7495703371515883	0.09135642723772622	0.566176751248315	1.7926135395111706	0.1606089218233963	0.5480746790750799	0.36221477746250513	0.17227188240712094	0.4478178195513818	0.1171114059422548	0.177383768009511	0.3913965401209223	0.235937840548256	0.3210570317139706	0.5129388280168633	0.43987097981500584	0.37293222989732067	0.5373277856135157	0.7001262098671127	0.3754919241496646	0.3991744107112711	0.9205018683548604	0.3686235466100541	0.2834743487469433	1.0014105299240965	0.3781245622116725	0.2816537480831523	1.0196405279139895	0.3957529687624123	0.39001520460456596	1.0485613598584043	0.02124101052707931	0.5053710603365271	0.44411198795243084	-0.03825691196004448	0.5347965478245096	0.725109776566401	-0.0368535474102507	0.38455012827940793	0.9261537512349594	-0.0074879304861173775	0.32994498327730415	1.0113653000283864	-0.03155773024353635	0.32194665700077474	1.025283580870654	-0.08514758927513726	0.3744429821557201	1.037282144545394
219	4.055555555555555	0.26954908349786855	0.5309666959085617	0.9131948527940168	0.26703343039565597	0.5378909618309964	1.34654235328917	0.2581888144901683	0.5062812798515782	1.7285318116592967	0.27275920642892193	0.3730590758800732	1.7289218030141849	0.3139478330265206	0.4132890476650395	1.744067948404056	0.23486324572114872	0.5747879067312185	1.8129073210179882	0.0687516336814994	0.5314441818430435	0.9272237654375362	0.07092217318956771	0.5320933644140265	1.3378796742874732	0.07338933907420782	0.5428987512722285	1.7658207553097314	0.10260298760143968	0.35930212083407936	1.7234577429953655	0.0447119002552873	0.4079354540973678	1.7481309830403315	0.09118857471004656	0.5663177530129111	1.7925371398266068	0.16053474656320227	0.5481112223845095	0.3621873573112511	0.17227115286380962	0.44778874105219374	0.11712570024473426	0.17632630792540277	0.3908134965184668	0.2359253324413614	0.3210468207747115	0.5129984039814781	0.4399433436321756	0.3727216327344717	0.536115836671464	0.6998149665135384	0.3707501189405651	0.39753534129987544	0.9201802421667165	0.3665671074068661	0.27798594246998376	0.9976228224486908	0.37176430057773047	0.27773001078231346	1.016045301283828	0.3854214118117057	0.38021529343354543	1.0455848248349997	0.02126368276819722	0.5054244019001785	0.4440932987297336	-0.03677814773479897	0.5292617867345614	0.7234711979378583	-0.02796031609787328	0.37293147901745693	0.9207628896885315	-0.005291474170278373	0.326556774297192	1.008790531400999	-0.02384644234364266	0.31475686086392846	1.0227522060789476	-0.08318591056427227	0.3707206842094881	1.0353634182407894
220	4.074074074074074	0.2683921453256397	0.5314540491603579	0.913134189029624	0.2670721207347935	0.532990573304142	1.3455397015337622	0.25819269131221806	0.5062955669670346	1.7284360741742448	0.2738606348156065	0.37680538106105077	1.7313952063258575	0.31397819906769314	0.4133429563120776	1.744076965043268	0.23451658753920196	0.5746680430478807	1.8108422301841134	0.06879025230863774	0.5314077518801427	0.9263097530106608	0.07169916178955958	0.5321150879331054	1.3350210607051156	0.07294187336724273	0.5394215206611437	1.762674860232224	0.10284411008994096	0.35794314212880607	1.7224970798305237	0.04524050138887592	0.4079841508361929	1.7471019572549815	0.09117564776533915	0.5662442369428575	1.7922417517236704	0.1604308955495565	0.5480875188179815	0.36215711882210094	0.17227769646043106	0.4477356690807017	0.11713838802235542	0.17483880725831105	0.38999761721285203	0.23589137428806922	0.32101175484165284	0.5130170999995068	0.4396373235086337	0.37210718232596335	0.5329816067486883	0.6986262434411687	0.3634845069803181	0.3917712900903666	0.9190771912751107	0.364281916437858	0.2736166932689895	0.9933982958094623	0.36777779514521447	0.2744545682428639	1.0126075871715605	0.3715108380423645	0.3645011374073697	1.0401310180862178	0.02127822656332511	0.5054747159434675	0.44408889189070644	-0.03474287456010715	0.5227946317080387	0.7217856799394158	-0.019260488085885454	0.36326689171670357	0.9154726875164616	-0.002583549997883969	0.32304486462847093	1.0067608295280768	-0.01809072168047561	0.31194112466403595	1.0216613427875436	-0.0766978843996664	0.36398224938950663	1.0320617101814182
221	4.092592592592593	0.26748060059892975	0.53407424736893	0.9130390033639607	0.2670273037885904	0.5299568423439194	1.3450850352406933	0.2582012576204457	0.5062298486558533	1.7283614096212703	0.27413628219171676	0.37850847961279277	1.7324105288734293	0.313970123433943	0.41306470515349303	1.7439391877897614	0.2343192595559876	0.5750390940350971	1.809598896005971	0.0688289245903043	0.5311928927955833	0.9243328714151499	0.07164450225986366	0.5319457786565199	1.3320118333292121	0.07293512844944568	0.5378200727407129	1.7602950291725907	0.10307293018868008	0.3543454395576212	1.7197757621755752	0.04539026902632346	0.4083958021613778	1.7472547083944325	0.09131249921011593	0.5653936741204209	1.7915834291851336	0.1603978715034389	0.5480481018739921	0.36214421386935475	0.17229281003113706	0.44770369736280313	0.11713536048968004	0.1737701453016653	0.38941729940098274	0.23586034205471862	0.320932686010261	0.5129216860463581	0.43862805355338963	0.3712311444383837	0.528321741111647	0.6974368605570722	0.35518843708634107	0.38190708962731634	0.9160167106759725	0.3619672386432785	0.27159683725486866	0.9905274399335969	0.36602369309118266	0.27118535446857805	1.0100903355953885	0.3589519837611956	0.34702315466647277	1.0330768822735226	0.02127753157461778	0.5054925512287913	0.4441087110114586	-0.033437034126935536	0.5173728467613866	0.7207298931472647	-0.012982735105304052	0.3575503558173996	0.9119633074641531	0.0005531744565456448	0.32009991884961647	1.005873150585029	-0.01339202644936655	0.3107419318599055	1.0211910895779182	-0.0652512530574447	0.35205167498982826	1.0268430122474828
222	4.111111111111111	0.26724202553911836	0.5382576008810065	0.9128739083477149	0.2663095250387546	0.5293642384743824	1.3450715894619627	0.25819791587667995	0.5061739193945991	1.7283508546324096	0.2737114368775124	0.376752844971021	1.731102190662303	0.31393531797543395	0.4125116311102282	1.7436638308006436	0.23433056370504965	0.5759698616472354	1.80946362674131	0.06878715981393146	0.5308064170672971	0.9226139919602686	0.07085506831953606	0.5319132236622942	1.33096252701658	0.0737331846629797	0.5379866727761606	1.7596499898568445	0.10342477392144236	0.35011079545024	1.7166346102798085	0.04506174185183852	0.4089262278215162	1.747847639360399	0.09143023460573675	0.564788193972992	1.791183346676012	0.16040199129599242	0.5480116059054359	0.362140049585736	0.1723122680534106	0.44771430258798817	0.11711240594522682	0.17342191574325383	0.38924809898581914	0.23584268016747076	0.32082383758900257	0.51272921129797	0.4372194800615631	0.37058109179576726	0.5244519810591218	0.6978761545218235	0.34744711766617115	0.37296668498111474	0.9122051525296324	0.3582493410726642	0.270517523184627	0.9884375614042114	0.3644288355858751	0.2679921268779312	1.008588425829182	0.3515667433596175	0.3324431459681362	1.025955432918175	0.02126706181217384	0.5054803949904445	0.4441472119462313	-0.033125827240469516	0.5141588703254847	0.7202119263755172	-0.009027682667352967	0.3534929561305481	0.9102395991585764	0.004684512788440129	0.3162378667850437	1.00425470765265	-0.009244143997373836	0.3090694760683145	1.0207769941931708	-0.0515335674550834	0.3363620707952825	1.0200923364838
